<svg width="134" height="48" viewBox="0 0 134 48" fill="none" xmlns="http://www.w3.org/2000/svg">
<g clip-path="url(#clip0_1_923)">
<path d="M15.385 6H0.75V41L15.385 6Z" fill="#FA0C00"/>
<path d="M25.6821 6H40.298V41L25.6821 6Z" fill="#FA0C00"/>
<path d="M20.5337 18.8999L29.8486 41.0001H23.7372L20.9532 33.9639H14.1362L20.5337 18.8999Z" fill="#FA0C00"/>
<path d="M64.1736 28.2577L65.8993 33.2059C65.9565 33.3298 66.0423 33.3871 66.1948 33.3871H69.5127C69.6939 33.3871 69.7225 33.3012 69.6939 33.1201L62.8388 14.0803C62.8102 13.9278 62.7816 13.8992 62.629 13.8992H58.5103C58.3959 13.8992 58.3291 13.985 58.3291 14.1089C58.2719 15.11 58.1861 15.4151 58.0622 15.7107L51.9507 33.0915C51.9221 33.3012 51.9889 33.3871 52.1605 33.3871H55.1256C55.3068 33.3871 55.3926 33.3298 55.4593 33.1487L57.0897 28.2577H64.1736ZM58.0336 25.0256C58.9298 22.3179 60.112 18.8474 60.5887 16.8643H60.6173C61.2084 18.9428 62.6004 23.0615 63.2297 25.0256H58.0336Z" fill="#FA0C00"/>
<path d="M78.5067 33.6828C80.2896 33.6828 82.1869 33.3587 84.1128 32.5292C84.2654 32.472 84.294 32.4052 84.294 32.2622C84.2367 31.7283 84.17 30.956 84.17 30.3649V12.4407C84.17 12.3262 84.17 12.269 84.027 12.269H80.7949C80.671 12.269 80.6138 12.3262 80.6138 12.4788V18.5521C80.1084 18.4949 79.7557 18.4663 79.3362 18.4663C74.121 18.4663 70.9175 21.9081 70.9175 26.208C70.9175 31.1944 74.2068 33.6828 78.5067 33.6828ZM80.6138 30.3649C80.0798 30.5365 79.4887 30.6033 78.8881 30.6033C76.5236 30.6033 74.5881 29.2685 74.5881 26.0269C74.5881 23.1571 76.5808 21.46 79.2218 21.46C79.7557 21.46 80.2229 21.5172 80.6138 21.6698V30.3649Z" fill="#FA0C00"/>
<path d="M94.6048 18.4661C90.1524 18.4661 87.397 21.8793 87.397 26.0934C87.397 29.8594 89.5898 33.6826 94.5381 33.6826C98.7236 33.6826 101.66 30.6031 101.66 25.9981C101.66 21.9365 99.1717 18.4661 94.6048 18.4661ZM94.4237 21.4598C96.9407 21.4598 98.0085 23.6241 98.0085 26.0934C98.0085 29.1444 96.4354 30.6603 94.6048 30.6603C92.3452 30.6603 91.0104 28.763 91.0104 26.0267C91.0104 23.2141 92.431 21.4598 94.4237 21.4598Z" fill="#FA0C00"/>
<path d="M105.002 12.269C104.878 12.269 104.792 12.3262 104.792 12.4788V32.7675C104.792 32.8534 104.878 33.0059 105.002 33.0345C106.422 33.4731 107.91 33.6828 109.445 33.6828C113.84 33.6828 118.111 30.956 118.111 25.4644C118.111 21.4886 115.384 18.4663 111.113 18.4663C110.131 18.4663 109.216 18.6188 108.415 18.8858L108.377 12.5074C108.377 12.2976 108.32 12.269 108.11 12.269H105.002ZM114.46 25.8267C114.46 29.1159 112.21 30.6605 109.778 30.6605C109.273 30.6605 108.825 30.6319 108.415 30.5079V21.8509C108.882 21.6698 109.445 21.5172 110.484 21.5172C112.829 21.5172 114.46 23.0045 114.46 25.8267Z" fill="#FA0C00"/>
<path d="M130.173 26.8943C131.622 26.8943 132.814 26.8657 133.224 26.7703C133.377 26.7417 133.434 26.6845 133.463 26.5606C133.548 26.2364 133.587 25.5595 133.587 24.73C133.587 21.9079 131.889 18.4661 127.504 18.4661C123.023 18.4661 120.534 22.1177 120.534 26.2364C120.534 29.888 122.46 33.6826 127.856 33.6826C129.878 33.6826 131.184 33.3585 132.309 32.8246C132.423 32.7673 132.481 32.672 132.481 32.5004V30.031C132.481 29.888 132.395 29.8594 132.309 29.9166C131.184 30.3933 129.964 30.6317 128.629 30.6317C125.606 30.6317 124.234 28.9632 124.148 26.8943H130.173ZM124.148 24.3391C124.386 22.8899 125.301 21.3168 127.351 21.3168C129.611 21.3168 130.202 23.2141 130.202 24.0722C130.202 24.1008 130.202 24.2247 130.202 24.3105C130.078 24.3391 129.697 24.3391 128.572 24.3391H124.148Z" fill="#FA0C00"/>
</g>
<defs>
<clipPath id="clip0_1_923">
<rect width="133" height="48" fill="white" transform="translate(0.75)"/>
</clipPath>
</defs>
</svg>
