<svg width="111" height="48" viewBox="0 0 111 48" fill="none" xmlns="http://www.w3.org/2000/svg">
<g clip-path="url(#clip0_1_925)">
<path fill-rule="evenodd" clip-rule="evenodd" d="M68.1849 37.8069C61.8214 42.4973 52.5978 44.9998 44.6564 44.9998C33.5214 44.9998 23.497 40.8814 15.9131 34.0316C15.3173 33.493 15.8511 32.7589 16.5661 33.1784C24.7506 37.9403 34.8703 40.8051 45.3238 40.8051C52.3737 40.8051 60.1292 39.3465 67.2602 36.3196C68.3375 35.862 69.2384 37.0251 68.1849 37.8069Z" fill="#FF9900"/>
<path fill-rule="evenodd" clip-rule="evenodd" d="M70.8305 34.78C70.0202 33.7409 65.4537 34.2891 63.404 34.5322C62.7796 34.6084 62.6842 34.065 63.2467 33.6741C66.8837 31.1144 72.8516 31.8533 73.5475 32.7113C74.2435 33.574 73.3664 39.5563 69.9487 42.4115C69.4243 42.8501 68.9238 42.6165 69.1574 42.035C69.9249 40.1187 71.6456 35.8239 70.8305 34.78Z" fill="#FF9900"/>
<path fill-rule="evenodd" clip-rule="evenodd" d="M63.5473 15.6036V13.1154C63.5473 12.7388 63.8333 12.4862 64.1765 12.4862H75.3163C75.6738 12.4862 75.9598 12.7436 75.9598 13.1154V15.2461C75.9551 15.6036 75.6548 16.0708 75.1209 16.8096L69.3484 25.0513C71.4934 24.9988 73.7576 25.3182 75.7024 26.4145C76.141 26.6624 76.2601 27.0247 76.2935 27.3822V30.0373C76.2935 30.3995 75.8931 30.8238 75.4736 30.6045C72.0464 28.8074 67.4941 28.612 63.7046 30.6236C63.3185 30.8333 62.9133 30.4138 62.9133 30.0516V27.53C62.9133 27.1248 62.9181 26.4336 63.3233 25.8187L70.011 16.2281H64.1908C63.8333 16.2281 63.5473 15.9754 63.5473 15.6036Z" fill="black"/>
<path fill-rule="evenodd" clip-rule="evenodd" d="M22.911 31.1289H19.5219C19.1977 31.105 18.9403 30.8619 18.9165 30.5521V13.1583C18.9165 12.8104 19.2073 12.5339 19.5695 12.5339H22.7299C23.0588 12.5482 23.3209 12.8008 23.3448 13.1154V15.3892H23.4068C24.2314 13.1917 25.7806 12.1669 27.8684 12.1669C29.9896 12.1669 31.3147 13.1917 32.2681 15.3892C33.0879 13.1917 34.9517 12.1669 36.949 12.1669C38.3695 12.1669 39.9234 12.7532 40.872 14.0688C41.9445 15.5322 41.7252 17.6581 41.7252 19.5219L41.7205 30.4997C41.7205 30.8476 41.4297 31.1289 41.0674 31.1289H37.6831C37.3446 31.105 37.0729 30.8333 37.0729 30.4997V21.2808C37.0729 20.5468 37.1397 18.7163 36.9776 18.0204C36.725 16.8526 35.9671 16.5236 34.9851 16.5236C34.1652 16.5236 33.3072 17.0718 32.9593 17.9489C32.6113 18.826 32.6446 20.2941 32.6446 21.2808V30.4997C32.6446 30.8476 32.3539 31.1289 31.9916 31.1289H28.6072C28.264 31.105 27.9971 30.8333 27.9971 30.4997L27.9923 21.2808C27.9923 19.3408 28.3117 16.4855 25.9045 16.4855C23.4687 16.4855 23.5641 19.2693 23.5641 21.2808V30.4997C23.5641 30.8476 23.2733 31.1289 22.911 31.1289Z" fill="black"/>
<path fill-rule="evenodd" clip-rule="evenodd" d="M85.5503 12.1669C90.5792 12.1669 93.301 16.4855 93.301 21.9768C93.301 27.2821 90.2932 31.4911 85.5503 31.4911C80.612 31.4911 77.9236 27.1725 77.9236 21.7909C77.9236 16.3759 80.6454 12.1669 85.5503 12.1669ZM85.5789 15.7181C83.0812 15.7181 82.9239 19.1215 82.9239 21.2427C82.9239 23.3686 82.8905 27.9066 85.5503 27.9066C88.1768 27.9066 88.3007 24.2457 88.3007 22.0149C88.3007 20.5468 88.2388 18.7926 87.7954 17.4007C87.4141 16.19 86.6562 15.7181 85.5789 15.7181Z" fill="black"/>
<path fill-rule="evenodd" clip-rule="evenodd" d="M99.822 31.1289H96.4472C96.1087 31.105 95.837 30.8333 95.837 30.4997L95.8323 13.1011C95.8609 12.7818 96.1421 12.5339 96.4853 12.5339H99.6266C99.9221 12.5482 100.165 12.7484 100.232 13.0201V15.6799H100.294C101.242 13.3013 102.572 12.1669 104.913 12.1669C106.433 12.1669 107.916 12.715 108.869 14.2166C109.756 15.6084 109.756 17.9489 109.756 19.6315V30.5807C109.718 30.8858 109.436 31.1289 109.103 31.1289H105.704C105.394 31.105 105.137 30.8762 105.104 30.5807V21.1331C105.104 19.2311 105.323 16.4474 102.982 16.4474C102.158 16.4474 101.4 17.0003 101.023 17.8393C100.547 18.9022 100.485 19.9605 100.485 21.1331V30.4997C100.48 30.8476 100.184 31.1289 99.822 31.1289Z" fill="black"/>
<path fill-rule="evenodd" clip-rule="evenodd" d="M54.6669 22.8204C54.6669 24.1408 54.7003 25.2419 54.033 26.4146C53.4943 27.3679 52.6363 27.9542 51.6877 27.9542C50.3864 27.9542 49.6237 26.9627 49.6237 25.4993C49.6237 22.6107 52.2121 22.0864 54.6669 22.0864V22.8204ZM58.0847 31.0812C57.8606 31.2814 57.5365 31.2957 57.2839 31.1622C56.1589 30.2279 55.9539 29.7942 55.339 28.9028C53.48 30.7999 52.1596 31.3672 49.7524 31.3672C46.8972 31.3672 44.6807 29.6083 44.6807 26.0857C44.6807 23.3353 46.1679 21.4619 48.2938 20.5467C50.1338 19.7364 52.703 19.5934 54.6669 19.3693V18.9308C54.6669 18.1252 54.7289 17.1719 54.2522 16.476C53.8423 15.8515 53.051 15.5941 52.3503 15.5941C51.0585 15.5941 49.9098 16.2567 49.6285 17.6295C49.5713 17.9346 49.3473 18.2349 49.0374 18.2492L45.7532 17.8964C45.4767 17.8345 45.1669 17.6104 45.2479 17.1862C46.001 13.2012 49.6047 12 52.827 12C54.4763 12 56.6308 12.4385 57.9321 13.6874C59.5814 15.2271 59.4241 17.2815 59.4241 19.5171V24.7986C59.4241 26.386 60.0819 27.0819 60.7016 27.9399C60.9161 28.245 60.9638 28.612 60.6873 28.8408C59.9961 29.4176 58.7663 30.4901 58.0894 31.0907L58.0847 31.0812Z" fill="black"/>
<path fill-rule="evenodd" clip-rule="evenodd" d="M10.2363 22.8204C10.2363 24.1408 10.2696 25.2419 9.60229 26.4145C9.06365 27.3679 8.21041 27.9542 7.25707 27.9542C5.95575 27.9542 5.19785 26.9627 5.19785 25.4993C5.19785 22.6107 7.78617 22.0864 10.2363 22.0864V22.8204ZM13.654 31.0812C13.43 31.2814 13.1058 31.2957 12.8532 31.1622C11.7282 30.2279 11.528 29.7941 10.9084 28.9028C9.04935 30.7999 7.73374 31.3672 5.32178 31.3672C2.47129 31.3672 0.25 29.6082 0.25 26.0856C0.25 23.3352 1.74198 21.4619 3.86317 20.5467C5.70312 19.7364 8.27238 19.5934 10.2363 19.3693V18.9308C10.2363 18.1252 10.2982 17.1719 9.82633 16.4759C9.41162 15.8515 8.62035 15.5941 7.92441 15.5941C6.63263 15.5941 5.47908 16.2567 5.19785 17.6295C5.14065 17.9346 4.91661 18.2349 4.61154 18.2492L1.32251 17.8964C1.04604 17.8345 0.740971 17.6104 0.817238 17.1862C1.57515 13.2012 5.17401 12 8.39631 12C10.0456 12 12.2001 12.4385 13.5015 13.6874C15.1507 15.2271 14.9934 17.2815 14.9934 19.5171V24.7986C14.9934 26.3859 15.6513 27.0819 16.2709 27.9399C16.4902 28.245 16.5379 28.612 16.2614 28.8408C15.5702 29.4176 14.3404 30.4901 13.6635 31.0907L13.654 31.0812Z" fill="black"/>
</g>
<defs>
<clipPath id="clip0_1_925">
<rect width="110" height="48" fill="white" transform="translate(0.25)"/>
</clipPath>
</defs>
</svg>
