<svg width="136" height="82" viewBox="0 0 136 82" fill="none" xmlns="http://www.w3.org/2000/svg">
<path d="M134.499 4.185C133.814 2.53564 132.503 1.22496 130.854 0.539999C130.043 0.194123 129.171 0.0106649 128.289 0H94.5391C92.7489 0 91.032 0.71116 89.7662 1.97703C88.5003 3.2429 87.7891 4.95979 87.7891 6.75C87.7891 8.54021 88.5003 10.2571 89.7662 11.523C91.032 12.7888 92.7489 13.5 94.5391 13.5H112.022L74.2891 51.2325L52.0816 28.9575C51.4541 28.3248 50.7076 27.8227 49.885 27.48C49.0625 27.1373 48.1802 26.9609 47.2891 26.9609C46.3981 26.9609 45.5158 27.1373 44.6932 27.48C43.8707 27.8227 43.1241 28.3248 42.4966 28.9575L1.99664 69.4575C1.36397 70.085 0.86181 70.8316 0.519122 71.6541C0.176433 72.4767 0 73.3589 0 74.25C0 75.1411 0.176433 76.0233 0.519122 76.8459C0.86181 77.6684 1.36397 78.415 1.99664 79.0425C2.62414 79.6752 3.3707 80.1773 4.19325 80.52C5.0158 80.8627 5.89806 81.0391 6.78914 81.0391C7.68022 81.0391 8.56248 80.8627 9.38503 80.52C10.2076 80.1773 10.9541 79.6752 11.5816 79.0425L47.2891 43.2675L69.4966 65.5425C70.1241 66.1752 70.8707 66.6773 71.6932 67.02C72.5158 67.3627 73.3981 67.5391 74.2891 67.5391C75.1802 67.5391 76.0625 67.3627 76.885 67.02C77.7076 66.6773 78.4541 66.1752 79.0816 65.5425L121.539 23.0175V40.5C121.539 42.2902 122.25 44.0071 123.516 45.273C124.782 46.5388 126.499 47.25 128.289 47.25C130.079 47.25 131.796 46.5388 133.062 45.273C134.328 44.0071 135.039 42.2902 135.039 40.5V6.75C135.028 5.86793 134.845 4.9965 134.499 4.185Z" fill="#3461FF"/>
</svg>
