<svg width="102" height="102" viewBox="0 0 102 102" fill="none" xmlns="http://www.w3.org/2000/svg">
<rect width="102" height="102" rx="24" fill="#3461FF"/>
<path fill-rule="evenodd" clip-rule="evenodd" d="M28 51C28 38.2977 38.2977 28 51 28C63.7023 28 74 38.2977 74 51C74 63.7023 63.7023 74 51 74C38.2977 74 28 63.7023 28 51ZM53.0909 38.4545C53.0909 37.9 52.8706 37.3682 52.4785 36.976C52.0864 36.5839 51.5545 36.3636 51 36.3636C50.4455 36.3636 49.9136 36.5839 49.5215 36.976C49.1294 37.3682 48.9091 37.9 48.9091 38.4545V40.5455C47.2455 40.5455 45.65 41.2063 44.4736 42.3827C43.2972 43.5591 42.6364 45.1546 42.6364 46.8182C42.6364 48.4818 43.2972 50.0773 44.4736 51.2537C45.65 52.43 47.2455 53.0909 48.9091 53.0909H53.0909C53.6455 53.0909 54.1773 53.3112 54.5694 53.7033C54.9615 54.0954 55.1818 54.6273 55.1818 55.1818C55.1818 55.7364 54.9615 56.2682 54.5694 56.6603C54.1773 57.0524 53.6455 57.2727 53.0909 57.2727H44.7273C44.1727 57.2727 43.6409 57.493 43.2488 57.8851C42.8567 58.2773 42.6364 58.8091 42.6364 59.3636C42.6364 59.9182 42.8567 60.45 43.2488 60.8421C43.6409 61.2343 44.1727 61.4545 44.7273 61.4545H48.9091V63.5455C48.9091 64.1 49.1294 64.6318 49.5215 65.024C49.9136 65.4161 50.4455 65.6364 51 65.6364C51.5545 65.6364 52.0864 65.4161 52.4785 65.024C52.8706 64.6318 53.0909 64.1 53.0909 63.5455V61.4545C53.9147 61.4545 54.7303 61.2923 55.4914 60.9771C56.2524 60.6618 56.9439 60.1998 57.5264 59.6173C58.1089 59.0348 58.5709 58.3433 58.8862 57.5823C59.2014 56.8212 59.3636 56.0056 59.3636 55.1818C59.3636 54.3581 59.2014 53.5424 58.8862 52.7813C58.5709 52.0203 58.1089 51.3288 57.5264 50.7463C56.9439 50.1639 56.2524 49.7018 55.4914 49.3866C54.7303 49.0713 53.9147 48.9091 53.0909 48.9091H48.9091C48.3545 48.9091 47.8227 48.6888 47.4306 48.2967C47.0385 47.9046 46.8182 47.3727 46.8182 46.8182C46.8182 46.2636 47.0385 45.7318 47.4306 45.3397C47.8227 44.9476 48.3545 44.7273 48.9091 44.7273H57.2727C57.8273 44.7273 58.3591 44.507 58.7512 44.1149C59.1433 43.7227 59.3636 43.1909 59.3636 42.6364C59.3636 42.0818 59.1433 41.55 58.7512 41.1579C58.3591 40.7657 57.8273 40.5455 57.2727 40.5455H53.0909V38.4545Z" fill="white"/>
</svg>
