<svg width="144" height="32" viewBox="0 0 144 32" fill="none" xmlns="http://www.w3.org/2000/svg">
<path d="M52.296 17.1213H42.4246V22.3465H53.6746V26H38.2748V5.67831H53.1783V9.27666H42.4246V13.5919H52.296V17.1213ZM63.1039 15.1085C62.773 14.3824 62.125 14.0193 61.1599 14.0193C60.0386 14.0193 59.2849 14.3824 58.8989 15.1085C58.6875 15.5221 58.5818 16.1379 58.5818 16.9559V26H54.5974V11H58.4164V13.1921C58.9035 12.4108 59.363 11.8548 59.795 11.5239C60.5579 10.9357 61.546 10.6415 62.7592 10.6415C63.9081 10.6415 64.8364 10.8943 65.5441 11.3998C66.114 11.8686 66.546 12.4706 66.8401 13.2059C67.3548 12.3235 67.9936 11.6756 68.7564 11.262C69.5653 10.8483 70.466 10.6415 71.4586 10.6415C72.1204 10.6415 72.773 10.7702 73.4164 11.0276C74.0597 11.2849 74.6434 11.7353 75.1673 12.3787C75.5901 12.9026 75.875 13.546 76.0221 14.3088C76.114 14.8143 76.1599 15.5542 76.1599 16.5285L76.1323 26H72.1066V16.432C72.1066 15.8621 72.0147 15.3934 71.8309 15.0257C71.4816 14.3272 70.8382 13.9779 69.9007 13.9779C68.8162 13.9779 68.0671 14.4283 67.6535 15.329C67.4421 15.807 67.3364 16.3814 67.3364 17.0524V26H63.3796V17.0524C63.3796 16.1608 63.2877 15.5129 63.1039 15.1085ZM85.9476 26.3998C84.7068 26.3998 83.7096 26.1517 82.9559 25.6553C82.5055 25.3612 82.0184 24.8465 81.4945 24.1112V26H77.648V5.70588H81.5634V12.9301C82.0597 12.2316 82.6066 11.6985 83.204 11.3309C83.9118 10.8713 84.8125 10.6415 85.9062 10.6415C87.8823 10.6415 89.4265 11.3539 90.5386 12.7785C91.6599 14.2031 92.2206 16.0414 92.2206 18.2932C92.2206 20.6278 91.6691 22.5625 90.5662 24.0974C89.4632 25.6324 87.9237 26.3998 85.9476 26.3998ZM88.0983 18.7068C88.0983 17.6406 87.9605 16.7583 87.6847 16.0597C87.1608 14.7362 86.1958 14.0745 84.7895 14.0745C83.3649 14.0745 82.386 14.7224 81.8529 16.0184C81.5772 16.7077 81.4393 17.5993 81.4393 18.693C81.4393 19.9798 81.7243 21.046 82.2941 21.8915C82.864 22.7371 83.7325 23.1599 84.8998 23.1599C85.9108 23.1599 86.6967 22.7509 87.2573 21.9329C87.818 21.1149 88.0983 20.0395 88.0983 18.7068ZM100.602 14.5983C99.0211 14.5983 97.9595 15.1131 97.4173 16.1425C97.114 16.7215 96.9623 17.6131 96.9623 18.8171V26H93.0055V10.9724H96.7555V13.5919C97.3621 12.5901 97.8906 11.9053 98.341 11.5377C99.0763 10.9219 100.032 10.614 101.209 10.614C101.282 10.614 101.342 10.6186 101.388 10.6278C101.443 10.6278 101.558 10.6324 101.733 10.6415V14.6673C101.484 14.6397 101.264 14.6213 101.071 14.6121C100.878 14.6029 100.721 14.5983 100.602 14.5983ZM102.614 12.5993C103.653 11.2757 105.436 10.614 107.963 10.614C109.608 10.614 111.07 10.9403 112.347 11.5928C113.625 12.2454 114.264 13.477 114.264 15.2877V22.1811C114.264 22.659 114.273 23.2381 114.291 23.9182C114.319 24.4329 114.397 24.7822 114.526 24.966C114.654 25.1498 114.847 25.3015 115.105 25.421V26H110.831C110.711 25.6967 110.629 25.4118 110.583 25.1452C110.537 24.8787 110.5 24.5754 110.472 24.2353C109.93 24.8235 109.305 25.3244 108.597 25.7381C107.752 26.2252 106.796 26.4687 105.73 26.4687C104.369 26.4687 103.244 26.0827 102.352 25.3107C101.47 24.5294 101.028 23.4265 101.028 22.0018C101.028 20.1544 101.741 18.8171 103.165 17.9899C103.947 17.5395 105.096 17.2178 106.612 17.0248L107.949 16.8594C108.676 16.7675 109.195 16.6526 109.507 16.5147C110.068 16.2757 110.348 15.9035 110.348 15.398C110.348 14.7822 110.132 14.3594 109.7 14.1296C109.278 13.8906 108.653 13.7711 107.825 13.7711C106.897 13.7711 106.24 14.0009 105.854 14.4605C105.578 14.8006 105.394 15.2601 105.302 15.8392H101.511C101.594 14.5248 101.961 13.4449 102.614 12.5993ZM105.537 23.1599C105.904 23.4632 106.355 23.6149 106.888 23.6149C107.733 23.6149 108.51 23.3667 109.218 22.8704C109.935 22.3741 110.307 21.4688 110.335 20.1544V18.693C110.086 18.8493 109.834 18.9779 109.576 19.079C109.328 19.171 108.983 19.2583 108.542 19.341L107.66 19.5064C106.833 19.6535 106.24 19.8327 105.881 20.0441C105.275 20.4026 104.971 20.9586 104.971 21.7123C104.971 22.3833 105.16 22.8658 105.537 23.1599ZM128.767 16.3631H124.741C124.667 15.8024 124.479 15.2969 124.176 14.8465C123.734 14.2399 123.05 13.9366 122.121 13.9366C120.798 13.9366 119.892 14.5938 119.405 15.9081C119.148 16.6066 119.019 17.5349 119.019 18.693C119.019 19.796 119.148 20.6829 119.405 21.3539C119.874 22.6039 120.756 23.2289 122.052 23.2289C122.971 23.2289 123.624 22.9807 124.01 22.4844C124.396 21.9881 124.631 21.3447 124.713 20.5542H128.725C128.633 21.7491 128.201 22.8796 127.429 23.9458C126.198 25.6645 124.373 26.5239 121.956 26.5239C119.539 26.5239 117.76 25.807 116.62 24.3732C115.481 22.9393 114.911 21.0781 114.911 18.7895C114.911 16.2068 115.54 14.1985 116.8 12.7647C118.059 11.3309 119.796 10.614 122.011 10.614C123.895 10.614 125.435 11.0368 126.63 11.8824C127.834 12.7279 128.546 14.2215 128.767 16.3631ZM142.346 21.5882C142.244 22.4798 141.78 23.3851 140.953 24.3042C139.666 25.7656 137.865 26.4963 135.549 26.4963C133.637 26.4963 131.95 25.8805 130.489 24.6489C129.028 23.4173 128.297 21.4136 128.297 18.6379C128.297 16.0368 128.954 14.0423 130.268 12.6544C131.592 11.2665 133.306 10.5726 135.411 10.5726C136.661 10.5726 137.787 10.807 138.789 11.2757C139.79 11.7445 140.618 12.4844 141.27 13.4954C141.858 14.387 142.24 15.421 142.415 16.5974C142.516 17.2868 142.557 18.2794 142.539 19.5754H132.254C132.309 21.0827 132.782 22.1397 133.674 22.7463C134.216 23.1232 134.869 23.3116 135.631 23.3116C136.44 23.3116 137.097 23.0818 137.603 22.6222C137.879 22.3741 138.122 22.0294 138.334 21.5882H142.346ZM138.458 16.9835C138.393 15.9449 138.076 15.159 137.506 14.6259C136.946 14.0836 136.247 13.8125 135.411 13.8125C134.501 13.8125 133.793 14.0974 133.288 14.6673C132.791 15.2371 132.479 16.0092 132.35 16.9835H138.458Z" fill="black"/>
<circle cx="9.5" cy="16.5" r="9.5" fill="#3461FF"/>
<path d="M34.5192 15.6362C35.1807 16.0221 35.1807 16.9779 34.5192 17.3638L19.5039 26.1227C18.8372 26.5116 18 26.0308 18 25.259L18 7.74104C18 6.96925 18.8372 6.48837 19.5039 6.87726L27 11.25L34.5192 15.6362Z" fill="#3461FF"/>
</svg>
