<svg width="164" height="48" viewBox="0 0 164 48" fill="none" xmlns="http://www.w3.org/2000/svg">
<path d="M39.6255 32.5723L40.64 32.3634C41.5352 32.1247 41.7739 32.0054 41.7739 30.215V16.161C41.7739 14.3707 41.5053 14.2215 40.64 14.0126L39.6255 13.8037V12.9683H55.7981L56.0965 18.9062H55.1715C54.4255 17.265 53.9481 16.3997 53.5005 15.7433C52.5456 14.3707 51.919 14.2513 49.8602 14.2513C48.3384 14.2513 47.5924 14.4304 47.1448 14.5497V22.1586H47.9505C50.0392 22.1586 50.5166 21.9199 50.8747 21.2634C51.2924 20.5175 51.5311 19.9505 51.7997 18.9957H52.6948V26.6941H51.7997C51.5311 25.7691 51.2924 25.1723 50.8747 24.307C50.5166 23.561 50.1287 23.4118 47.9505 23.4118H47.1448V29.1408C47.1448 31.7965 47.2344 32.0949 50.1287 32.0949C52.5158 32.0949 52.9932 31.7965 53.9779 30.3344C54.515 29.5287 55.0819 28.2755 55.8577 26.3957H56.8126L56.3948 33.4078H39.6553L39.6255 32.5723ZM59.319 21.3828C58.6327 19.7118 58.3045 19.2941 57.5585 19.0554L56.9916 18.8763V18.1005H65.8537V18.8763L65.0481 19.0852C64.4215 19.2642 64.1231 19.5626 64.1231 20.2787C64.1231 20.6965 64.2723 21.2037 64.511 21.8602L66.9876 28.6634H67.1368L69.5239 21.8602C69.7924 21.1441 69.9118 20.6368 69.9118 20.2191C69.9118 19.5626 69.6134 19.2344 68.9868 19.0852L68.1811 18.8763V18.1005H73.6416V18.8763L73.0747 19.0554C72.2989 19.3239 71.9706 19.7715 71.2545 21.711L66.6892 33.4078H64.1827L59.319 21.3828ZM72.9553 25.6796C72.9553 20.5473 76.7448 17.7126 80.6537 17.7126C84.7118 17.7126 87.2481 19.7416 87.3376 25.0828H77.5803C77.6698 29.9166 79.49 31.2296 82.5335 31.2296C84.3537 31.2296 85.7561 30.6925 86.8602 30.1255V31.1102C85.8158 32.2441 83.5779 33.7957 80.6239 33.7957C75.4916 33.736 72.9553 30.6925 72.9553 25.6796ZM77.5803 23.9489L82.6231 23.6804C82.6231 20.1296 82.1456 18.8166 80.3852 18.8166C78.8932 18.8166 77.6997 20.2489 77.5803 23.9489ZM95.0956 19.9804C95.9311 19.0852 97.6319 17.6231 99.6013 17.6231C100.855 17.6231 101.899 18.6376 101.899 19.9207C101.899 21.2037 100.884 22.2183 99.6013 22.2183C98.6763 22.2183 97.8408 21.6513 97.5126 20.8457C97.3335 20.5175 96.9456 20.4279 96.6771 20.4279C96.14 20.4279 95.5134 20.8158 95.1255 21.1739V30.7223C95.1255 32.0949 95.2448 32.2441 96.14 32.3933L97.1247 32.6021V33.4078H88.6206V32.6021L89.3965 32.3933C90.3811 32.1247 90.5005 31.9755 90.5005 30.7223V21.5618C90.5005 20.3086 90.3513 20.2191 89.5158 19.6521L88.5311 18.9957V18.3989L94.7376 17.6828L95.0658 17.9215L95.0061 19.9505L95.0956 19.9804ZM102.794 32.6021L103.57 32.3933C104.555 32.1247 104.674 31.9755 104.674 30.7223V21.5618C104.674 20.3086 104.525 20.2191 103.689 19.6521L102.705 18.9957V18.3989L108.911 17.6828L109.239 17.8916L109.18 19.7715H109.299C110.85 18.6675 112.79 17.6828 114.938 17.6828C117.445 17.6828 118.788 18.9658 118.788 21.6215V30.6925C118.788 31.9755 118.907 32.1247 119.862 32.3634L120.638 32.5723V33.3779H112.432V32.5723L113.148 32.3933C114.043 32.1546 114.133 32.065 114.133 30.6925V22.7852C114.133 20.9949 113.476 20.4279 112.104 20.4279C111.059 20.4279 110.015 20.6666 109.359 20.8158V30.7223C109.359 32.1247 109.448 32.1844 110.343 32.4231L111.059 32.6021V33.4078H102.854V32.6021H102.794ZM121.205 25.7691C121.205 20.1296 125.203 17.7126 129.171 17.7126C133.438 17.7126 137.168 20.2787 137.168 25.6199C137.168 31.2594 133.23 33.736 129.171 33.736C124.905 33.736 121.205 31.1699 121.205 25.7691ZM132.215 25.9183C132.215 19.9804 131.081 18.8465 129.052 18.8465C127.202 18.8465 126.098 20.1892 126.098 25.2618C126.098 31.2892 127.083 32.6021 129.231 32.6021C130.992 32.6021 132.215 31.5578 132.215 25.9183ZM139.705 29.6779V19.8312H137.855V19.115C140.152 18.2199 141.913 16.5191 142.748 14.1618H144.419V18.1005H148.328L147.94 19.8312H144.419V29.3796C144.419 30.8416 144.867 31.4384 146.329 31.4384C147.045 31.4384 147.91 31.2892 148.447 31.1699V32.0054C147.731 32.6618 146.269 33.736 143.792 33.736C141.137 33.736 139.705 32.5723 139.705 29.6779ZM149.044 25.6796C149.044 20.5473 152.834 17.7126 156.742 17.7126C160.8 17.7126 163.337 19.7416 163.426 25.0828H153.699C153.788 29.9166 155.609 31.2296 158.652 31.2296C160.472 31.2296 161.875 30.6925 162.979 30.1255V31.1102C161.934 32.2441 159.696 33.7957 156.742 33.7957C151.58 33.736 149.044 30.6925 149.044 25.6796ZM153.669 23.9489L158.712 23.6804C158.712 20.1296 158.234 18.8166 156.474 18.8166C154.982 18.8166 153.788 20.2489 153.669 23.9489Z" fill="black"/>
<path d="M9.72774 15.2655C9.72774 15.6236 9.69791 16.2203 9.33984 16.6082C8.95194 16.9663 8.35516 16.9961 7.9971 16.9961H4.17775C3.07371 16.9961 2.41726 16.9961 1.96968 17.0558C1.73097 17.0857 1.43259 17.205 1.28339 17.2647C1.22371 17.2945 1.22371 17.2647 1.25355 17.2348L9.96645 8.37275C9.99629 8.34291 10.0261 8.34291 9.99629 8.40259C9.93662 8.55178 9.81726 8.85017 9.78742 9.08888C9.72775 9.53646 9.72774 10.1929 9.72774 11.2969V15.2655ZM17.8439 42.0606C16.8294 41.4042 16.2923 40.5389 16.0834 40.0018C15.8745 39.4945 15.7552 38.9276 15.7552 38.3607C15.7552 35.884 17.7842 33.855 20.2906 33.855C21.0366 33.855 21.6334 34.4518 21.6334 35.1978C21.6334 35.705 21.3648 36.1227 20.9471 36.3615C20.7979 36.451 20.589 36.5107 20.4398 36.5405C20.2906 36.5703 19.7237 36.63 19.4552 36.8687C19.1568 37.1074 18.9181 37.4953 18.9181 37.9131C18.9181 38.3607 19.0971 38.7784 19.3955 39.0768C19.9326 39.6139 20.6487 39.9123 21.4245 39.9123C23.4535 39.9123 25.0947 38.2711 25.0947 36.2421C25.0947 34.4219 23.8713 32.8107 22.26 32.0945C22.0213 31.9752 21.6334 31.8857 21.2753 31.7961C20.8277 31.7066 20.41 31.6469 20.3802 31.6469C19.1269 31.4977 15.9939 30.5131 15.785 27.7381C15.785 27.7381 14.86 31.9155 13.01 33.0494C12.831 33.1389 12.5923 33.2284 12.3237 33.2881C12.0552 33.3477 11.7568 33.3776 11.6673 33.3776C8.65355 33.5566 5.46081 32.6018 3.25275 30.334C3.25275 30.334 1.76081 29.1107 0.985005 25.6792C0.805973 24.8437 0.447908 23.3518 0.239037 21.9494C0.149521 21.4421 0.119682 21.0542 0.0898438 20.6961C0.0898438 19.234 0.985005 18.2494 2.11888 18.1002C2.14871 18.1002 2.23823 18.1002 2.29791 18.1002C2.9842 18.1002 8.20597 18.1002 8.20597 18.1002C9.25033 18.1002 9.8471 17.8316 10.235 17.4736C10.7423 16.9961 10.8616 16.3098 10.8616 15.5042C10.8616 15.5042 10.8616 10.0736 10.8616 9.38726C10.8616 9.35742 10.8616 9.23807 10.8616 9.20823C11.0108 8.1042 11.9955 7.1792 13.4576 7.1792C13.4576 7.1792 13.9052 7.1792 14.1737 7.1792C14.4721 7.1792 14.8302 7.20904 15.1584 7.23888C15.3971 7.26872 15.606 7.32839 15.964 7.41791C17.7842 7.86549 18.1721 9.71549 18.1721 9.71549C18.1721 9.71549 21.6035 10.3123 23.3342 10.6107C24.9753 10.909 29.0334 11.1776 29.8092 15.2655C31.6294 24.9929 30.5253 34.4219 30.4358 34.4219C29.1527 43.6123 21.514 43.1647 21.514 43.1647C19.8729 43.1647 18.6495 42.6276 17.8439 42.0606ZM24.7068 22.5163C23.7221 22.4268 22.8866 22.8147 22.5882 23.5607C22.5285 23.7098 22.4689 23.8889 22.4987 23.9784C22.5285 24.0679 22.5882 24.0977 22.6479 24.1276C23.006 24.3066 23.6027 24.3961 24.4681 24.4857C25.3334 24.5752 25.9302 24.6348 26.3181 24.5752C26.3777 24.5752 26.4374 24.5453 26.4971 24.4558C26.5568 24.3663 26.5269 24.1873 26.5269 24.0381C26.4076 23.2026 25.6914 22.6357 24.7068 22.5163Z" fill="#00A82D"/>
</svg>
