<svg width="102" height="102" viewBox="0 0 102 102" fill="none" xmlns="http://www.w3.org/2000/svg">
<rect width="102" height="102" rx="24" fill="#3461FF"/>
<g clip-path="url(#clip0_1_860)">
<path fill-rule="evenodd" clip-rule="evenodd" d="M34.8999 71.6H67.1C69.6898 71.6 71.5298 70.4707 72.6476 68.9182C73.678 67.4853 74 65.8362 74 64.7V50.9C74 50.29 73.7577 49.705 73.3263 49.2736C72.895 48.8423 72.31 48.6 71.7 48.6H64.8V37.1C64.8 35.27 64.073 33.5149 62.779 32.2209C61.485 30.9269 59.73 30.2 57.9 30.2H34.8999C33.0699 30.2 31.3149 30.9269 30.0209 32.2209C28.7269 33.5149 27.9999 35.27 27.9999 37.1V64.7C27.9999 65.8339 28.3219 67.4853 29.3523 68.9182C30.4701 70.473 32.3101 71.6 34.8999 71.6ZM67.1 53.2C67.71 53.2 68.295 53.4423 68.7263 53.8737C69.1577 54.305 69.4 54.89 69.4 55.5V64.7C69.4 65.31 69.1577 65.895 68.7263 66.3264C68.295 66.7577 67.71 67 67.1 67C66.49 67 65.905 66.7577 65.4736 66.3264C65.0423 65.895 64.8 65.31 64.8 64.7V55.5C64.8 54.89 65.0423 54.305 65.4736 53.8737C65.905 53.4423 66.49 53.2 67.1 53.2ZM44.0999 46.3C44.0999 45.69 44.3423 45.105 44.7736 44.6736C45.2049 44.2423 45.7899 44 46.3999 44C47.0099 44 47.5949 44.2423 48.0263 44.6736C48.4576 45.105 48.6999 45.69 48.6999 46.3C48.6999 46.91 48.4576 47.495 48.0263 47.9263C47.5949 48.3577 47.0099 48.6 46.3999 48.6C45.7899 48.6 45.2049 48.3577 44.7736 47.9263C44.3423 47.495 44.0999 46.91 44.0999 46.3ZM46.3999 39.4C44.5699 39.4 42.8149 40.1269 41.5209 41.4209C40.2269 42.7149 39.4999 44.47 39.4999 46.3C39.4999 48.13 40.2269 49.885 41.5209 51.179C42.8149 52.473 44.5699 53.2 46.3999 53.2C48.2299 53.2 49.985 52.473 51.279 51.179C52.573 49.885 53.2999 48.13 53.2999 46.3C53.2999 44.47 52.573 42.7149 51.279 41.4209C49.985 40.1269 48.2299 39.4 46.3999 39.4ZM39.4999 57.8C38.8899 57.8 38.3049 58.0423 37.8736 58.4737C37.4422 58.905 37.1999 59.49 37.1999 60.1C37.1999 60.71 37.4422 61.295 37.8736 61.7264C38.3049 62.1577 38.8899 62.4 39.4999 62.4H53.2999C53.9099 62.4 54.495 62.1577 54.9263 61.7264C55.3576 61.295 55.6 60.71 55.6 60.1C55.6 59.49 55.3576 58.905 54.9263 58.4737C54.495 58.0423 53.9099 57.8 53.2999 57.8H39.4999Z" fill="white"/>
</g>
<defs>
<clipPath id="clip0_1_860">
<rect width="46" height="46" fill="white" transform="translate(28 28)"/>
</clipPath>
</defs>
</svg>
