<svg width="28" height="28" viewBox="0 0 28 28" fill="none" xmlns="http://www.w3.org/2000/svg">
<path d="M13.9997 2.33325C17.1695 2.33325 17.565 2.34492 18.8087 2.40325C20.0512 2.46159 20.897 2.65642 21.6413 2.94575C22.4113 3.24209 23.06 3.64342 23.7087 4.29092C24.3019 4.87413 24.761 5.57961 25.0538 6.35825C25.342 7.10142 25.538 7.94842 25.5963 9.19092C25.6512 10.4346 25.6663 10.8301 25.6663 13.9999C25.6663 17.1698 25.6547 17.5653 25.5963 18.8089C25.538 20.0514 25.342 20.8973 25.0538 21.6416C24.7618 22.4207 24.3027 23.1263 23.7087 23.7089C23.1253 24.302 22.4199 24.761 21.6413 25.0541C20.8982 25.3423 20.0512 25.5383 18.8087 25.5966C17.565 25.6514 17.1695 25.6666 13.9997 25.6666C10.8298 25.6666 10.4343 25.6549 9.19067 25.5966C7.94817 25.5383 7.10234 25.3423 6.35801 25.0541C5.57906 24.7618 4.87346 24.3027 4.29067 23.7089C3.69732 23.1258 3.23826 22.4203 2.94551 21.6416C2.65617 20.8984 2.46134 20.0514 2.40301 18.8089C2.34817 17.5653 2.33301 17.1698 2.33301 13.9999C2.33301 10.8301 2.34467 10.4346 2.40301 9.19092C2.46134 7.94725 2.65617 7.10259 2.94551 6.35825C3.23745 5.57913 3.69661 4.87346 4.29067 4.29092C4.87362 3.69736 5.57917 3.23827 6.35801 2.94575C7.10234 2.65642 7.94701 2.46159 9.19067 2.40325C10.4343 2.34842 10.8298 2.33325 13.9997 2.33325ZM13.9997 8.16659C12.4526 8.16659 10.9688 8.78117 9.87489 9.87513C8.78092 10.9691 8.16634 12.4528 8.16634 13.9999C8.16634 15.547 8.78092 17.0307 9.87489 18.1247C10.9688 19.2187 12.4526 19.8333 13.9997 19.8333C15.5468 19.8333 17.0305 19.2187 18.1245 18.1247C19.2184 17.0307 19.833 15.547 19.833 13.9999C19.833 12.4528 19.2184 10.9691 18.1245 9.87513C17.0305 8.78117 15.5468 8.16659 13.9997 8.16659ZM21.583 7.87492C21.583 7.48814 21.4294 7.11721 21.1559 6.84372C20.8824 6.57023 20.5114 6.41659 20.1247 6.41659C19.7379 6.41659 19.367 6.57023 19.0935 6.84372C18.82 7.11721 18.6663 7.48814 18.6663 7.87492C18.6663 8.26169 18.82 8.63263 19.0935 8.90612C19.367 9.17961 19.7379 9.33325 20.1247 9.33325C20.5114 9.33325 20.8824 9.17961 21.1559 8.90612C21.4294 8.63263 21.583 8.26169 21.583 7.87492ZM13.9997 10.4999C14.9279 10.4999 15.8182 10.8687 16.4745 11.525C17.1309 12.1814 17.4997 13.0717 17.4997 13.9999C17.4997 14.9282 17.1309 15.8184 16.4745 16.4748C15.8182 17.1312 14.9279 17.4999 13.9997 17.4999C13.0714 17.4999 12.1812 17.1312 11.5248 16.4748C10.8684 15.8184 10.4997 14.9282 10.4997 13.9999C10.4997 13.0717 10.8684 12.1814 11.5248 11.525C12.1812 10.8687 13.0714 10.4999 13.9997 10.4999Z" fill="#3461FF"/>
</svg>
