<svg width="144" height="48" viewBox="0 0 144 48" fill="none" xmlns="http://www.w3.org/2000/svg">
<g clip-path="url(#clip0_1_924)">
<path d="M53.7126 12.7715H45.8374C45.2985 12.7715 44.8402 13.163 44.7561 13.695L41.571 33.8891C41.5077 34.2875 41.8163 34.6468 42.2205 34.6468H45.9802C46.5191 34.6468 46.9774 34.2553 47.0614 33.7222L47.9205 28.2755C48.0034 27.7423 48.4628 27.3508 49.0006 27.3508H51.4936C56.6812 27.3508 59.6751 24.8405 60.457 19.866C60.8094 17.6896 60.472 15.9796 59.4529 14.782C58.3336 13.467 56.3484 12.7715 53.7126 12.7715ZM54.6211 20.1469C54.1905 22.9728 52.0314 22.9728 49.9437 22.9728H48.7553L49.589 17.6954C49.6385 17.3764 49.9149 17.1415 50.2373 17.1415H50.782C52.2041 17.1415 53.5456 17.1415 54.2388 17.9522C54.6522 18.4358 54.7789 19.1543 54.6211 20.1469Z" fill="#253B80"/>
<path d="M77.2532 20.056H73.482C73.1607 20.056 72.8832 20.2909 72.8337 20.6098L72.6667 21.6646L72.403 21.2823C71.5866 20.0974 69.766 19.7013 67.949 19.7013C63.7816 19.7013 60.2223 22.8576 59.5291 27.2852C59.1687 29.4938 59.6811 31.6057 60.9339 33.0784C62.0831 34.4326 63.7275 34.9969 65.6839 34.9969C69.0417 34.9969 70.9037 32.8378 70.9037 32.8378L70.7356 33.8857C70.6723 34.2864 70.9809 34.6457 71.3828 34.6457H74.7797C75.3198 34.6457 75.7758 34.2541 75.861 33.721L77.8992 20.8137C77.9637 20.4164 77.6562 20.056 77.2532 20.056ZM71.9965 27.3957C71.6326 29.5502 69.9226 30.9965 67.7417 30.9965C66.6466 30.9965 65.7714 30.6453 65.2095 29.9797C64.6522 29.3187 64.4403 28.378 64.6176 27.3301C64.9573 25.194 66.6961 23.7005 68.8437 23.7005C69.9146 23.7005 70.7851 24.0563 71.3586 24.7277C71.9332 25.4059 72.1612 26.3524 71.9965 27.3957Z" fill="#253B80"/>
<path d="M97.3379 20.0559H93.5482C93.1867 20.0559 92.847 20.2355 92.642 20.5361L87.4153 28.2351L85.1997 20.8366C85.0604 20.3737 84.6332 20.0559 84.1496 20.0559H80.4256C79.973 20.0559 79.6587 20.4981 79.8026 20.9242L83.9768 33.174L80.0525 38.7139C79.7439 39.1503 80.0548 39.7503 80.5879 39.7503H84.373C84.7322 39.7503 85.0685 39.5752 85.2723 39.2805L97.8768 21.0865C98.1785 20.6512 97.8687 20.0559 97.3379 20.0559Z" fill="#253B80"/>
<path d="M109.885 12.7717H102.008C101.471 12.7717 101.012 13.1632 100.928 13.6952L97.7431 33.8894C97.6798 34.2878 97.9884 34.6471 98.3903 34.6471H102.432C102.807 34.6471 103.129 34.373 103.188 33.9999L104.091 28.2757C104.174 27.7426 104.634 27.3511 105.172 27.3511H107.663C112.852 27.3511 115.845 24.8408 116.628 19.8662C116.981 17.6898 116.642 15.9798 115.623 14.7823C114.505 13.4672 112.521 12.7717 109.885 12.7717ZM110.793 20.1472C110.364 22.973 108.205 22.973 106.116 22.973H104.929L105.763 17.6956C105.813 17.3766 106.087 17.1417 106.411 17.1417H106.955C108.376 17.1417 109.719 17.1417 110.412 17.9524C110.825 18.436 110.951 19.1546 110.793 20.1472Z" fill="#179BD7"/>
<path d="M133.424 20.0562H129.655C129.332 20.0562 129.056 20.2911 129.008 20.6101L128.841 21.6649L128.576 21.2826C127.76 20.0977 125.94 19.7015 124.123 19.7015C119.956 19.7015 116.398 22.8578 115.705 27.2854C115.345 29.494 115.855 31.6059 117.108 33.0787C118.26 34.4329 119.902 34.9971 121.858 34.9971C125.216 34.9971 127.078 32.838 127.078 32.838L126.91 33.8859C126.847 34.2866 127.155 34.6459 127.559 34.6459H130.955C131.493 34.6459 131.951 34.2544 132.035 33.7212L134.075 20.8139C134.137 20.4166 133.828 20.0562 133.424 20.0562ZM128.167 27.396C127.806 29.5504 126.094 30.9967 123.913 30.9967C122.82 30.9967 121.942 30.6455 121.38 29.98C120.823 29.319 120.613 28.3782 120.788 27.3303C121.13 25.1943 122.867 23.7007 125.015 23.7007C126.085 23.7007 126.956 24.0566 127.529 24.7279C128.106 25.4061 128.334 26.3527 128.167 27.396Z" fill="#179BD7"/>
<path d="M137.87 13.3255L134.638 33.8893C134.574 34.2877 134.883 34.647 135.285 34.647H138.534C139.074 34.647 139.533 34.2555 139.616 33.7223L142.803 13.5294C142.866 13.1309 142.558 12.7705 142.156 12.7705H138.517C138.196 12.7717 137.919 13.0066 137.87 13.3255Z" fill="#179BD7"/>
<path d="M8.86683 38.5713L9.46907 34.746L8.12756 34.7149H1.72168L6.17344 6.48781C6.18725 6.40259 6.23216 6.32314 6.2978 6.26671C6.36344 6.21029 6.4475 6.1792 6.53501 6.1792H17.3362C20.922 6.1792 23.3966 6.92538 24.6886 8.39817C25.2943 9.08908 25.6801 9.81108 25.8666 10.6056C26.0624 11.4393 26.0659 12.4354 25.8747 13.6502L25.8609 13.7389V14.5173L26.4666 14.8605C26.9767 15.1311 27.382 15.4408 27.6929 15.7955C28.2111 16.3862 28.5462 17.137 28.6879 18.0271C28.8341 18.9426 28.7857 20.0319 28.5462 21.2652C28.2699 22.6839 27.8231 23.9194 27.2197 24.9305C26.6646 25.862 25.9576 26.6347 25.1182 27.2335C24.3167 27.8024 23.3644 28.2342 22.2877 28.5105C21.2445 28.7823 20.055 28.9193 18.7503 28.9193H17.9097C17.3086 28.9193 16.7248 29.1358 16.2665 29.5239C15.807 29.92 15.503 30.4612 15.4097 31.0531L15.3464 31.3974L14.2824 38.1395L14.234 38.3871C14.2214 38.4654 14.1995 38.5045 14.1673 38.531C14.1385 38.5552 14.097 38.5713 14.0567 38.5713H8.86683Z" fill="#253B80"/>
<path d="M27.0401 13.8286C27.0079 14.0347 26.971 14.2455 26.9296 14.4619C25.5052 21.7752 20.632 24.3016 14.408 24.3016H11.239C10.4779 24.3016 9.8365 24.8544 9.7179 25.6052L8.09541 35.8951L7.63596 38.8119C7.5588 39.3047 7.9388 39.7492 8.43626 39.7492H14.0568C14.7224 39.7492 15.2878 39.2656 15.3926 38.6092L15.4478 38.3236L16.5061 31.608L16.574 31.2395C16.6777 30.5809 17.2442 30.0972 17.9098 30.0972H18.7504C24.1959 30.0972 28.4588 27.8863 29.7047 21.4885C30.2252 18.8158 29.9558 16.5842 28.5786 15.0147C28.1617 14.5414 27.6447 14.1487 27.0401 13.8286Z" fill="#179BD7"/>
<path d="M25.55 13.2344C25.3323 13.1711 25.1078 13.1135 24.8775 13.0617C24.646 13.011 24.4088 12.9661 24.1647 12.927C23.3103 12.7888 22.3741 12.7231 21.3711 12.7231H12.9052C12.6967 12.7231 12.4987 12.7704 12.3213 12.8556C11.931 13.0433 11.6408 13.4129 11.5706 13.8654L9.76959 25.2724L9.71777 25.6051C9.83638 24.8544 10.4778 24.3016 11.2389 24.3016H14.4079C20.6318 24.3016 25.505 21.7741 26.9295 14.4619C26.9721 14.2454 27.0078 14.0347 27.04 13.8286C26.6796 13.6374 26.2892 13.4739 25.8689 13.3346C25.7653 13.3001 25.6582 13.2667 25.55 13.2344Z" fill="#222D65"/>
<path d="M11.5707 13.8655C11.6409 13.413 11.9311 13.0433 12.3214 12.8568C12.4999 12.7716 12.6968 12.7244 12.9053 12.7244H21.3712C22.3742 12.7244 23.3103 12.79 24.1648 12.9282C24.4089 12.9673 24.6461 13.0122 24.8776 13.0629C25.1079 13.1147 25.3324 13.1723 25.55 13.2356C25.6583 13.2679 25.7654 13.3013 25.8702 13.3347C26.2905 13.474 26.6808 13.6387 27.0413 13.8287C27.465 11.1261 27.0378 9.28594 25.5765 7.6197C23.9656 5.78533 21.058 5 17.3374 5H6.53623C5.77623 5 5.12793 5.55273 5.01047 6.30467L0.511502 34.8219C0.422836 35.3862 0.858108 35.8952 1.42696 35.8952H8.09538L9.76968 25.2724L11.5707 13.8655Z" fill="#253B80"/>
</g>
<defs>
<clipPath id="clip0_1_924">
<rect width="143" height="48" fill="white" transform="translate(0.5)"/>
</clipPath>
</defs>
</svg>
