<svg width="102" height="102" viewBox="0 0 102 102" fill="none" xmlns="http://www.w3.org/2000/svg">
<rect width="102" height="102" rx="24" fill="#3461FF"/>
<g clip-path="url(#clip0_1_874)">
<path d="M73.816 38.6254C73.5826 38.0634 73.136 37.6168 72.5741 37.3835C72.2976 37.2656 72.0006 37.2031 71.7001 37.1995H60.2005C59.5906 37.1995 59.0056 37.4418 58.5743 37.8731C58.143 38.3044 57.9006 38.8894 57.9006 39.4994C57.9006 40.1093 58.143 40.6943 58.5743 41.1257C59.0056 41.557 59.5906 41.7993 60.2005 41.7993H66.1573L53.3008 54.6558L45.7341 47.0661C45.5203 46.8505 45.2659 46.6794 44.9857 46.5626C44.7054 46.4459 44.4048 46.3858 44.1012 46.3858C43.7976 46.3858 43.497 46.4459 43.2167 46.5626C42.9364 46.6794 42.6821 46.8505 42.4683 47.0661L28.6688 60.8655C28.4532 61.0793 28.2821 61.3337 28.1654 61.614C28.0486 61.8942 27.9885 62.1948 27.9885 62.4985C27.9885 62.8021 28.0486 63.1027 28.1654 63.3829C28.2821 63.6632 28.4532 63.9176 28.6688 64.1314C28.8826 64.347 29.137 64.5181 29.4172 64.6348C29.6975 64.7516 29.9981 64.8117 30.3017 64.8117C30.6054 64.8117 30.906 64.7516 31.1862 64.6348C31.4665 64.5181 31.7209 64.347 31.9347 64.1314L44.1012 51.9419L51.6679 59.5316C51.8817 59.7471 52.1361 59.9182 52.4163 60.035C52.6966 60.1518 52.9972 60.2119 53.3008 60.2119C53.6044 60.2119 53.905 60.1518 54.1853 60.035C54.4656 59.9182 54.7199 59.7471 54.9338 59.5316L69.4002 45.0422V50.9989C69.4002 51.6089 69.6425 52.1939 70.0738 52.6252C70.5051 53.0565 71.0901 53.2988 71.7001 53.2988C72.3101 53.2988 72.8951 53.0565 73.3264 52.6252C73.7577 52.1939 74 51.6089 74 50.9989V39.4994C73.9964 39.1988 73.9339 38.9019 73.816 38.6254Z" fill="white"/>
</g>
<defs>
<clipPath id="clip0_1_874">
<rect width="46" height="46" fill="white" transform="translate(28 28)"/>
</clipPath>
</defs>
</svg>
