<svg width="66" height="95" viewBox="0 0 66 95" fill="none" xmlns="http://www.w3.org/2000/svg">
<path d="M51.7108 0.404422C52.2891 0.739688 52.7366 1.26117 52.9802 1.88366C53.2239 2.50616 53.2492 3.19288 53.0521 3.83164L42.41 38.411H62.0456C62.6226 38.4108 63.1871 38.5796 63.6693 38.8965C64.1516 39.2134 64.5304 39.6646 64.7592 40.1943C64.9879 40.7241 65.0566 41.3093 64.9566 41.8776C64.8565 42.4459 64.5923 42.9725 64.1965 43.3923L16.9245 93.6187C16.4671 94.1051 15.8585 94.4222 15.1978 94.5184C14.5371 94.6146 13.8633 94.4841 13.2862 94.1483C12.7091 93.8125 12.2628 93.2911 12.02 92.6691C11.7772 92.0472 11.7522 91.3613 11.9492 90.7233L22.5913 56.138H2.95567C2.37863 56.1382 1.81415 55.9695 1.33192 55.6526C0.849685 55.3357 0.470808 54.8845 0.242059 54.3547C0.0133105 53.825 -0.055296 53.2398 0.0447084 52.6715C0.144713 52.1032 0.408949 51.5766 0.804801 51.1567L48.0767 0.930322C48.5336 0.444598 49.1413 0.127695 49.8011 0.0311421C50.4608 -0.0654111 51.1339 0.064063 51.7108 0.398513V0.404422Z" fill="#3461FF"/>
</svg>
