<svg width="102" height="102" viewBox="0 0 102 102" fill="none" xmlns="http://www.w3.org/2000/svg">
<rect width="102" height="102" rx="24" fill="#3461FF"/>
<path fill-rule="evenodd" clip-rule="evenodd" d="M53.9895 30.4057C54.4564 30.5525 54.8643 30.8445 55.1538 31.2391C55.4434 31.6337 55.5995 32.1104 55.5995 32.5999V44.0999H64.7995C65.2202 44.0997 65.6329 44.2149 65.9927 44.433C66.3524 44.6511 66.6455 44.9636 66.84 45.3367C67.0345 45.7098 67.1229 46.129 67.0957 46.5488C67.0684 46.9687 66.9265 47.373 66.6855 47.7178L50.5855 70.7178C50.3053 71.1192 49.9043 71.4208 49.4408 71.5786C48.9774 71.7364 48.4757 71.7422 48.0088 71.5952C47.5418 71.4482 47.1339 71.156 46.8445 70.7612C46.5551 70.3663 46.3991 69.8894 46.3995 69.3999V57.8999H37.1995C36.7787 57.9001 36.366 57.7849 36.0063 57.5668C35.6465 57.3487 35.3534 57.0361 35.1589 56.6631C34.9644 56.29 34.876 55.8708 34.9033 55.4509C34.9305 55.0311 35.0724 54.6268 35.3135 54.282L51.4135 31.282C51.6941 30.8813 52.0952 30.5805 52.5584 30.4233C53.0217 30.2662 53.5229 30.2608 53.9895 30.408V30.4057Z" fill="white"/>
</svg>
