<svg width="28" height="28" viewBox="0 0 28 28" fill="none" xmlns="http://www.w3.org/2000/svg">
<path d="M9.539 23.501C18.596 23.501 23.5505 15.9965 23.5505 9.50004C23.5505 9.29004 23.5505 9.07704 23.5415 8.86704C24.5061 8.16877 25.3386 7.30427 26 6.31404C25.099 6.71132 24.1441 6.97315 23.1665 7.09104C24.1963 6.4755 24.9676 5.50699 25.337 4.36554C24.3695 4.93873 23.3105 5.3411 22.2065 5.55504C21.4643 4.76458 20.4821 4.24092 19.4121 4.06518C18.3421 3.88944 17.2441 4.07142 16.288 4.58295C15.3319 5.09447 14.5712 5.90698 14.1237 6.89463C13.6761 7.88228 13.5668 8.98994 13.8125 10.046C11.8546 9.94787 9.93922 9.43924 8.19056 8.55315C6.4419 7.66707 4.89903 6.42331 3.662 4.90254C3.03401 5.98716 2.84236 7.27014 3.12597 8.49094C3.40958 9.71174 4.14718 10.7788 5.189 11.4755C4.40831 11.449 3.64478 11.2394 2.96 10.8635V10.931C2.96135 12.0673 3.35496 13.1682 4.07431 14.0477C4.79366 14.9272 5.79462 15.5314 6.908 15.758C6.48539 15.8745 6.04884 15.9325 5.6105 15.9305C5.30148 15.9315 4.99307 15.9028 4.6895 15.845C5.00418 16.8231 5.61691 17.6783 6.44187 18.2908C7.26683 18.9032 8.2627 19.2423 9.29 19.2605C7.54483 20.6312 5.3891 21.3746 3.17 21.371C2.77898 21.3727 2.38823 21.3501 2 21.3035C4.25227 22.7394 6.86795 23.5019 9.539 23.501Z" fill="#3461FF"/>
</svg>
